<?xml version="1.0" encoding="UTF-8" standalone="no"?>
<!-- Created with Inkscape (http://www.inkscape.org/) -->

<svg
   xmlns:dc="http://purl.org/dc/elements/1.1/"
   xmlns:cc="http://creativecommons.org/ns#"
   xmlns:rdf="http://www.w3.org/1999/02/22-rdf-syntax-ns#"
   xmlns:svg="http://www.w3.org/2000/svg"
   xmlns="http://www.w3.org/2000/svg"
   xmlns:sodipodi="http://sodipodi.sourceforge.net/DTD/sodipodi-0.dtd"
   xmlns:inkscape="http://www.inkscape.org/namespaces/inkscape"
   width="744.09448819"
   height="1052.3622047"
   id="svg3026"
   version="1.1"
   inkscape:version="0.48.4 r9939"
   sodipodi:docname="New document 1">
  <defs
     id="defs3028" />
  <sodipodi:namedview
     id="base"
     pagecolor="#ffffff"
     bordercolor="#666666"
     borderopacity="1.0"
     inkscape:pageopacity="0.0"
     inkscape:pageshadow="2"
     inkscape:zoom="0.2412458"
     inkscape:cx="302.83402"
     inkscape:cy="633.95413"
     inkscape:document-units="px"
     inkscape:current-layer="layer1"
     showgrid="false"
     showguides="true"
     inkscape:guide-bbox="true"
     inkscape:window-width="1366"
     inkscape:window-height="706"
     inkscape:window-x="-8"
     inkscape:window-y="-8"
     inkscape:window-maximized="1" />
  <metadata
     id="metadata3031">
    <rdf:RDF>
      <cc:Work
         rdf:about="">
        <dc:format>image/svg+xml</dc:format>
        <dc:type
           rdf:resource="http://purl.org/dc/dcmitype/StillImage" />
        <dc:title></dc:title>
      </cc:Work>
    </rdf:RDF>
  </metadata>
  <g
     inkscape:label="Layer 1"
     inkscape:groupmode="layer"
     id="layer1">
    <g
       id="g4462">
      <path
         style="fill:#ff0000;fill-opacity:1;stroke:none"
         d="m -2.2529907,-4.8458252 748.6004607,0 0,1062.0538252 -748.6004607,0 z"
         id="rect3034"
         inkscape:connector-curvature="0" />
      <path
         style="fill:#000080;fill-opacity:1;stroke:none"
         d="m 239.29051,-4.8458252 265.51346,0 0,1062.0538252 -265.51346,0 z"
         id="rect3815"
         inkscape:connector-curvature="0" />
      <g
         style="font-size:52.14533234px;font-style:normal;font-variant:normal;font-weight:normal;font-stretch:normal;text-align:start;line-height:74.00000095%;letter-spacing:0px;word-spacing:0px;writing-mode:lr-tb;text-anchor:start;fill:#ffd42a;fill-opacity:1;stroke:#d4aa00;stroke-opacity:1;font-family:AngsanaUPC;-inkscape-font-specification:AngsanaUPC"
         id="text3817-1">
        <path
           d="m 336.10185,58.377493 -1.94781,6.187166 -17.64488,0 0,-0.623809 0.85296,0 c 0.95905,1e-6 1.60408,-0.244006 1.93508,-0.73202 0.331,-0.488012 0.4965,-1.385532 0.4965,-2.692563 l 0,-14.704067 c 0,-1.519188 -0.2143,-2.467632 -0.6429,-2.845333 -0.42861,-0.377658 -1.02483,-0.566498 -1.78868,-0.56652 l -0.85296,0 0,-0.623809 10.32467,0 0,0.623809 c -0.95057,2.2e-5 -1.70805,0.08914 -2.27244,0.267346 -0.56441,0.178253 -0.96331,0.447721 -1.1967,0.808406 -0.2334,0.360726 -0.3501,1.266734 -0.35009,2.718024 l 0,14.322144 c -10e-6,1.145774 0.16549,1.865063 0.4965,2.157869 0.33099,0.29281 1.33672,0.439214 3.0172,0.439213 l 1.66773,0 c 1.34945,10e-7 2.41035,-0.08063 3.1827,-0.241885 0.77232,-0.161255 1.49797,-0.575006 2.17696,-1.241253 0.67896,-0.666241 1.3452,-1.788672 1.99874,-3.367295 z"
           style="line-height:74.00000095%;fill:#ffd42a;stroke:#d4aa00"
           id="path4381"
           inkscape:connector-curvature="0" />
        <path
           d="m 361.27063,64.564659 -8.98794,0 0,-0.623809 c 1.54466,-0.07638 2.31699,-0.538936 2.31701,-1.387656 -2e-5,-0.492255 -0.22493,-1.273076 -0.67473,-2.342466 l -1.37493,-3.271815 -8.82244,0 -1.55316,3.590084 c -0.37344,0.865698 -0.56016,1.527698 -0.56015,1.986004 -10e-6,0.82326 0.87842,1.298542 2.63527,1.425849 l 0,0.623809 -7.18017,0 0,-0.623809 c 0.8657,-0.152769 1.5086,-0.388288 1.92872,-0.706559 0.42011,-0.318268 1.02483,-1.394019 1.81414,-3.227256 l 8.0204,-18.75246 0.58561,0 7.93129,18.956153 c 0.55165,1.324005 1.0821,2.259718 1.59135,2.80714 0.50921,0.547425 1.28579,0.855085 2.32973,0.922982 z m -9.19163,-8.873363 -3.87016,-9.204364 -3.95928,9.204364 z"
           style="line-height:74.00000095%;fill:#ffd42a;stroke:#d4aa00"
           id="path4383"
           inkscape:connector-curvature="0" />
        <path
           d="m 364.64429,65.086622 -0.6238,0 0,-7.816708 0.6238,0 c 0.77234,4.33696 3.02993,6.505437 6.77279,6.505436 1.29853,10e-7 2.37852,-0.347974 3.23998,-1.043925 0.86144,-0.695948 1.29216,-1.591346 1.29218,-2.686198 -2e-5,-1.230637 -0.63231,-2.329728 -1.89689,-3.297275 -2.9875,-1.739866 -5.44242,-3.239976 -7.36476,-4.500336 -1.92236,-1.260335 -2.88353,-2.925946 -2.88353,-4.996837 0,-1.705907 0.64078,-3.131755 1.92235,-4.277547 1.28156,-1.145748 2.86442,-1.718633 4.74859,-1.718657 1.22214,2.4e-5 2.50371,0.297075 3.8447,0.891156 0.63652,0.280099 1.0821,0.420138 1.33673,0.420116 0.5856,2.2e-5 0.97177,-0.437068 1.1585,-1.311272 l 0.62381,0 0,7.880362 -0.62381,0 c -0.33101,-2.325474 -1.09274,-3.995328 -2.28517,-5.009568 -1.19247,-1.014198 -2.53132,-1.521308 -4.01657,-1.52133 -1.10334,2.2e-5 -2.05179,0.337388 -2.84533,1.012099 -0.79356,0.674752 -1.19034,1.500131 -1.19033,2.476139 -10e-6,0.62807 0.26946,1.296436 0.8084,2.0051 0.53893,0.708697 2.16211,1.792935 4.86953,3.252718 1.66348,0.891168 2.92383,1.623188 3.78105,2.196062 0.85719,0.572896 1.57224,1.315525 2.14514,2.227889 0.57287,0.912381 0.85931,1.90326 0.85933,2.97264 -2e-5,1.816264 -0.68961,3.326984 -2.06876,4.532163 -1.37918,1.205182 -3.07874,1.807772 -5.09868,1.807773 -1.09486,-1e-6 -2.44857,-0.267347 -4.06112,-0.80204 -0.99301,-0.331 -1.67623,-0.496501 -2.04966,-0.496501 -0.55167,0 -0.89116,0.432847 -1.01847,1.298541 z"
           style="line-height:74.00000095%;fill:#ffd42a;stroke:#d4aa00"
           id="path4385"
           inkscape:connector-curvature="0" />
        <path
           d="m 405.47195,58.542994 -3.05539,0 0,6.021665 -2.77531,0 0,-6.021665 -9.64995,0 0,-2.151505 10.57929,-15.085991 1.84597,0 0,14.856837 3.05539,0 z m -5.8307,-2.380659 0,-11.304945 -7.99494,11.304945 z"
           style="line-height:74.00000095%;fill:#ffd42a;stroke:#d4aa00"
           id="path4387"
           inkscape:connector-curvature="0" />
        <path
           d="m 413.27592,53.081483 c -1.78231,-1.451298 -2.94081,-2.639504 -3.4755,-3.564622 -0.5347,-0.925089 -0.80205,-1.854436 -0.80204,-2.788044 -10e-6,-1.731369 0.6429,-3.068101 1.92871,-4.0102 1.28581,-0.942056 2.73499,-1.413095 4.34757,-1.413119 1.6465,2.4e-5 3.07659,0.45621 4.29027,1.368561 1.21366,0.912394 1.82049,2.094235 1.82051,3.545526 -2e-5,1.858712 -1.56166,3.76833 -4.68493,5.728857 2.18968,1.688963 3.6028,3.040548 4.23935,4.054758 0.63653,1.014228 0.95479,2.064517 0.95481,3.150872 -2e-5,1.867186 -0.68111,3.303643 -2.04329,4.309373 -1.36221,1.005733 -2.89202,1.508599 -4.58945,1.5086 -2.18122,-10e-7 -3.81076,-0.611078 -4.88863,-1.833235 -1.07788,-1.222153 -1.61681,-2.478257 -1.61681,-3.768315 0,-2.011458 1.50647,-4.107793 4.51943,-6.289012 z m 2.63528,-1.795042 c 1.34945,-1.19668 2.20241,-2.166341 2.55889,-2.908986 0.35645,-0.742613 0.53468,-1.521313 0.53469,-2.336101 -10e-6,-2.503702 -1.2349,-3.755562 -3.70466,-3.755584 -1.07788,2.2e-5 -1.99026,0.314048 -2.73712,0.942078 -0.74688,0.628074 -1.12032,1.417382 -1.12031,2.367928 -1e-5,1.32402 0.57288,2.461303 1.71866,3.411853 z m -1.84597,2.444312 c -1.82475,1.536192 -2.73712,3.390643 -2.73712,5.563357 0,1.400392 0.38616,2.54404 1.1585,3.430949 0.77233,0.886913 1.78655,1.330369 3.04266,1.330368 1.02694,1e-6 1.94993,-0.299172 2.76895,-0.897521 0.819,-0.598345 1.22851,-1.46616 1.22852,-2.603447 -1e-5,-0.746868 -0.25887,-1.553151 -0.77658,-2.418851 -0.51773,-0.865687 -2.07937,-2.33397 -4.68493,-4.404855 z"
           style="line-height:74.00000095%;fill:#ffd42a;stroke:#d4aa00"
           id="path4389"
           inkscape:connector-curvature="0" />
        <path
           d="m 301.47409,96.96504 -1.94781,6.18717 -17.64488,0 0,-0.62381 0.85297,0 c 0.95905,0 1.60407,-0.24401 1.93508,-0.73202 0.33099,-0.48802 0.49649,-1.38554 0.4965,-2.692567 l 0,-14.704067 c -1e-5,-1.519188 -0.21431,-2.467631 -0.64291,-2.845333 -0.4286,-0.377658 -1.02483,-0.566498 -1.78867,-0.56652 l -0.85297,0 0,-0.623809 10.32468,0 0,0.623809 c -0.95058,2.2e-5 -1.70806,0.08914 -2.27245,0.267347 -0.56441,0.178253 -0.96331,0.447721 -1.1967,0.808405 -0.2334,0.360727 -0.3501,1.266734 -0.35009,2.718025 l 0,14.322143 c -1e-5,1.145777 0.16549,1.865067 0.4965,2.157867 0.33099,0.29281 1.33672,0.43922 3.0172,0.43922 l 1.66773,0 c 1.34945,0 2.41035,-0.0806 3.1827,-0.24189 0.77232,-0.16125 1.49797,-0.57501 2.17697,-1.24125 0.67895,-0.666244 1.3452,-1.788674 1.99873,-3.367297 z"
           style="line-height:74.00000095%;fill:#ffd42a;stroke:#d4aa00"
           id="path4391"
           inkscape:connector-curvature="0" />
        <path
           d="m 322.40352,97.436079 -1.96054,5.716131 -17.5685,0 0,-0.62381 0.81477,0 c 0.7978,0 1.40675,-0.2037 1.82687,-0.61108 0.42011,-0.40739 0.63017,-1.33249 0.63018,-2.775315 l 0,-14.805913 c -10e-6,-1.544649 -0.2037,-2.488849 -0.61108,-2.832602 -0.40739,-0.343709 -1.02271,-0.515575 -1.84597,-0.515597 l -0.81477,0 0,-0.623809 17.5685,0 0.25461,4.990471 -0.662,0 c -0.29707,-1.54465 -0.72355,-2.554625 -1.27944,-3.029928 -0.55593,-0.475262 -1.60198,-0.712903 -3.13814,-0.712925 l -6.25082,0 0,9.000671 5.0032,0 c 1.17122,1.3e-5 2.04328,-0.190949 2.61618,-0.572885 0.57287,-0.381911 0.8975,-1.294283 0.9739,-2.737121 l 0.61108,0 0,7.931285 -0.61108,0 c -0.1443,-1.536173 -0.52834,-2.484617 -1.15213,-2.845333 -0.62383,-0.360695 -1.43648,-0.541047 -2.43795,-0.541059 l -5.0032,0 0,7.511169 c -10e-6,1.077881 0.11032,1.771701 0.331,2.081481 0.22066,0.30979 0.73837,0.46468 1.55315,0.46468 l 3.85743,0 c 1.59558,0 2.84532,-0.25462 3.74922,-0.76385 0.90387,-0.50923 1.86505,-1.744115 2.88353,-3.704661 z"
           style="line-height:74.00000095%;fill:#ffd42a;stroke:#d4aa00"
           id="path4393"
           inkscape:connector-curvature="0" />
        <path
           d="m 347.50865,80.987893 -0.44558,0 c -0.53472,2.2e-5 -1.12882,0.188862 -1.78231,0.56652 -0.65354,0.377702 -1.55742,1.470427 -2.71166,3.27818 l -5.49971,8.65694 0,5.716126 c -10e-6,1.493751 0.21217,2.420971 0.63654,2.781681 0.42435,0.3607 1.03967,0.54106 1.84597,0.54106 l 0.73839,0 0,0.62381 -9.67541,0 0,-0.62381 0.80204,0 c 0.99299,0 1.64651,-0.23764 1.96054,-0.71293 0.31402,-0.47528 0.47103,-1.34522 0.47104,-2.609811 l 0,-5.397856 -6.26355,-9.548096 c -0.63654,-0.96752 -1.09061,-1.612547 -1.36219,-1.93508 -0.2716,-0.322493 -0.68747,-0.62591 -1.24762,-0.910252 -0.56016,-0.284299 -1.0609,-0.42646 -1.50223,-0.426482 l 0,-0.623809 9.75178,0 0,0.623809 -0.50923,0 c -1.40888,2.2e-5 -2.11332,0.492279 -2.11331,1.476772 -10e-6,0.415893 0.33948,1.145791 1.01846,2.189697 l 4.76132,7.332937 4.46851,-7.014667 c 0.67047,-1.052393 1.00571,-1.837458 1.00573,-2.355197 -2e-5,-1.08634 -0.76811,-1.62952 -2.30427,-1.629542 l 0,-0.623809 7.95675,0 z"
           style="line-height:74.00000095%;fill:#ffd42a;stroke:#d4aa00"
           id="path4395"
           inkscape:connector-curvature="0" />
        <path
           d="m 368.23437,97.436079 -1.96054,5.716131 -17.56849,0 0,-0.62381 0.81477,0 c 0.79779,0 1.40675,-0.2037 1.82687,-0.61108 0.42011,-0.40739 0.63017,-1.33249 0.63017,-2.775315 l 0,-14.805913 c 0,-1.544649 -0.2037,-2.488849 -0.61108,-2.832602 -0.40739,-0.343709 -1.02271,-0.515575 -1.84596,-0.515597 l -0.81477,0 0,-0.623809 17.56849,0 0.25462,4.990471 -0.662,0 c -0.29707,-1.54465 -0.72355,-2.554625 -1.27945,-3.029928 -0.55593,-0.475262 -1.60197,-0.712903 -3.13814,-0.712925 l -6.25082,0 0,9.000671 5.0032,0 c 1.17122,1.3e-5 2.04328,-0.190949 2.61618,-0.572885 0.57287,-0.381911 0.89751,-1.294283 0.97391,-2.737121 l 0.61107,0 0,7.931285 -0.61107,0 c -0.1443,-1.536173 -0.52835,-2.484617 -1.15214,-2.845333 -0.62382,-0.360695 -1.43647,-0.541047 -2.43795,-0.541059 l -5.0032,0 0,7.511169 c -10e-6,1.077881 0.11033,1.771701 0.331,2.081481 0.22066,0.30979 0.73838,0.46468 1.55316,0.46468 l 3.85743,0 c 1.59558,0 2.84532,-0.25462 3.74922,-0.76385 0.90387,-0.50923 1.86504,-1.744115 2.88352,-3.704661 z"
           style="line-height:74.00000095%;fill:#ffd42a;stroke:#d4aa00"
           id="path4397"
           inkscape:connector-curvature="0" />
        <path
           d="m 371.97723,103.67417 -0.62381,0 0,-7.816709 0.62381,0 c 0.77233,4.336959 3.02993,6.505439 6.77279,6.505439 1.29853,0 2.37852,-0.34798 3.23998,-1.04393 0.86144,-0.69595 1.29216,-1.591345 1.29218,-2.686196 -2e-5,-1.230638 -0.63231,-2.329729 -1.89689,-3.297276 -2.9875,-1.739866 -5.44242,-3.239976 -7.36476,-4.500336 -1.92236,-1.260335 -2.88353,-2.925945 -2.88353,-4.996836 0,-1.705908 0.64078,-3.131755 1.92235,-4.277547 1.28156,-1.145749 2.86442,-1.718634 4.74859,-1.718657 1.22214,2.3e-5 2.50371,0.297075 3.8447,0.891155 0.63652,0.2801 1.0821,0.420138 1.33673,0.420116 0.5856,2.2e-5 0.97177,-0.437068 1.1585,-1.311271 l 0.62381,0 0,7.880361 -0.62381,0 c -0.33101,-2.325474 -1.09274,-3.995328 -2.28518,-5.009567 -1.19246,-1.014199 -2.53131,-1.521308 -4.01656,-1.52133 -1.10334,2.2e-5 -2.05179,0.337388 -2.84533,1.012098 -0.79356,0.674752 -1.19034,1.500131 -1.19033,2.476139 -1e-5,0.628071 0.26946,1.296437 0.8084,2.0051 0.53893,0.708697 2.16211,1.792935 4.86953,3.252718 1.66348,0.891168 2.92383,1.623188 3.78105,2.196062 0.85719,0.572896 1.57223,1.315525 2.14514,2.227889 0.57286,0.912382 0.85931,1.903261 0.85932,2.972641 -10e-6,1.816264 -0.6896,3.326987 -2.06875,4.532167 -1.37918,1.20518 -3.07874,1.80777 -5.09868,1.80777 -1.09486,0 -2.44857,-0.26735 -4.06113,-0.80204 -0.993,-0.331 -1.67622,-0.4965 -2.04965,-0.4965 -0.55167,0 -0.89116,0.43284 -1.01847,1.29854 z"
           style="line-height:74.00000095%;fill:#ffd42a;stroke:#d4aa00"
           id="path4399"
           inkscape:connector-curvature="0" />
        <path
           d="m 397.37517,103.15221 0,-0.62381 0.86569,0 c 0.95905,0 1.60196,-0.24613 1.92872,-0.73839 0.32675,-0.49225 0.49013,-1.38341 0.49013,-2.673466 l 0,-14.716798 c 0,-1.519188 -0.2143,-2.467631 -0.6429,-2.845333 -0.42861,-0.377658 -1.02059,-0.566498 -1.77595,-0.56652 l -0.86569,0 0,-0.623809 9.28075,0 c 2.58858,2.3e-5 4.82283,0.252517 6.70276,0.757482 1.87989,0.50501 3.51156,1.691095 4.89499,3.558257 1.38339,1.8672 2.0751,4.188446 2.07512,6.963745 -2e-5,2.14727 -0.46894,4.10781 -1.40675,5.881627 -0.93786,1.773827 -2.33825,3.155115 -4.20117,4.143875 -1.86295,0.98876 -4.24997,1.48314 -7.16107,1.48314 z m 6.50543,-21.018545 0,19.376265 c 1.42584,0.31403 2.61829,0.47104 3.57736,0.47104 3.00445,0 5.26204,-1.01846 6.77278,-3.055388 1.5107,-2.036921 2.26606,-4.40909 2.26608,-7.116514 -2e-5,-3.055376 -0.83176,-5.514539 -2.49524,-7.377495 -1.6635,-1.862919 -3.88714,-2.794388 -6.67093,-2.794409 -1.00999,2.1e-5 -2.16,0.165521 -3.45005,0.496501 z"
           style="line-height:74.00000095%;fill:#ffd42a;stroke:#d4aa00"
           id="path4401"
           inkscape:connector-curvature="0" />
        <path
           d="m 441.86929,97.436079 -1.96054,5.716131 -17.5685,0 0,-0.62381 0.81477,0 c 0.7978,0 1.40675,-0.2037 1.82687,-0.61108 0.42012,-0.40739 0.63017,-1.33249 0.63018,-2.775315 l 0,-14.805913 c -1e-5,-1.544649 -0.2037,-2.488849 -0.61108,-2.832602 -0.40739,-0.343709 -1.02271,-0.515575 -1.84597,-0.515597 l -0.81477,0 0,-0.623809 17.5685,0 0.25462,4.990471 -0.66201,0 c -0.29706,-1.54465 -0.72355,-2.554625 -1.27944,-3.029928 -0.55593,-0.475262 -1.60197,-0.712903 -3.13814,-0.712925 l -6.25082,0 0,9.000671 5.0032,0 c 1.17122,1.3e-5 2.04328,-0.190949 2.61618,-0.572885 0.57287,-0.381911 0.8975,-1.294283 0.97391,-2.737121 l 0.61107,0 0,7.931285 -0.61107,0 c -0.1443,-1.536173 -0.52835,-2.484617 -1.15214,-2.845333 -0.62382,-0.360695 -1.43647,-0.541047 -2.43795,-0.541059 l -5.0032,0 0,7.511169 c -1e-5,1.077881 0.11033,1.771701 0.331,2.081481 0.22066,0.30979 0.73838,0.46468 1.55316,0.46468 l 3.85743,0 c 1.59558,0 2.84531,-0.25462 3.74922,-0.76385 0.90386,-0.50923 1.86504,-1.744115 2.88352,-3.704661 z"
           style="line-height:74.00000095%;fill:#ffd42a;stroke:#d4aa00"
           id="path4403"
           inkscape:connector-curvature="0" />
        <path
           d="m 462.90056,96.96504 -1.94781,6.18717 -17.64488,0 0,-0.62381 0.85296,0 c 0.95905,0 1.60408,-0.24401 1.93508,-0.73202 0.331,-0.48802 0.4965,-1.38554 0.4965,-2.692567 l 0,-14.704067 c 0,-1.519188 -0.2143,-2.467631 -0.6429,-2.845333 -0.42861,-0.377658 -1.02483,-0.566498 -1.78868,-0.56652 l -0.85296,0 0,-0.623809 10.32467,0 0,0.623809 c -0.95057,2.2e-5 -1.70805,0.08914 -2.27244,0.267347 -0.56441,0.178253 -0.96331,0.447721 -1.1967,0.808405 -0.2334,0.360727 -0.3501,1.266734 -0.35009,2.718025 l 0,14.322143 c -10e-6,1.145777 0.16549,1.865067 0.4965,2.157867 0.33099,0.29281 1.33672,0.43922 3.01719,0.43922 l 1.66774,0 c 1.34945,0 2.41035,-0.0806 3.1827,-0.24189 0.77232,-0.16125 1.49797,-0.57501 2.17696,-1.24125 0.67896,-0.666244 1.3452,-1.788674 1.99874,-3.367297 z"
           style="line-height:74.00000095%;fill:#ffd42a;stroke:#d4aa00"
           id="path4405"
           inkscape:connector-curvature="0" />
      </g>
      <g
         style="fill:#ffd42a;stroke:#d4aa00;stroke-width:3.5;stroke-miterlimit:4;stroke-dasharray:none"
         transform="translate(1.1604279e-6,-3.3103559)"
         id="g4225">
        <g
           style="font-size:230.06358337px;font-style:normal;font-variant:normal;font-weight:normal;font-stretch:normal;text-align:start;line-height:74.00000095%;letter-spacing:0px;word-spacing:0px;writing-mode:lr-tb;text-anchor:start;fill:#ffd42a;fill-opacity:1;stroke:#d4aa00;font-family:AngsanaUPC;-inkscape-font-specification:AngsanaUPC"
           id="text3817-1-8-2">
          <path
             d="m 362.35827,227.94189 0,29.26346 c -3e-5,6.66526 0.9361,10.8404 2.80839,12.52543 1.87223,1.68504 4.47467,2.52756 7.80734,2.52755 l 3.87558,0 0,2.75223 -43.08075,0 0,-2.75223 3.76324,0 c 4.19386,10e-6 7.01161,-1.04846 8.45327,-3.1454 1.44162,-2.09692 2.16244,-6.06611 2.16246,-11.90758 l 0,-64.93006 c -2e-5,-6.70261 -0.92679,-10.88711 -2.78031,-12.55352 -1.85355,-1.66621 -4.46535,-2.49937 -7.83542,-2.49947 l -3.76324,0 0,-2.75222 36.84612,0 c 13.92957,1e-4 24.03042,2.70551 30.30256,8.11625 6.272,5.41093 9.40804,11.9732 9.40812,19.68684 -8e-5,8.61247 -2.78975,15.39005 -8.36901,20.33277 -5.57941,4.94282 -13.14334,7.4142 -22.69182,7.41416 -4.83048,4e-5 -10.46599,-0.69269 -16.90653,-2.07821 z m 0,-46.05765 0,41.84506 c 5.2423,0.97362 9.3051,1.46041 12.18843,1.46036 5.99119,5e-5 10.64375,-2.21858 13.95771,-6.65589 3.31385,-4.4372 4.9708,-9.37061 4.97086,-14.80023 -6e-5,-7.52642 -2.01274,-13.28362 -6.03805,-17.27162 -4.02541,-3.98783 -9.14605,-5.98179 -15.36191,-5.98188 -2.50887,9e-5 -5.74788,0.46816 -9.71704,1.4042 z"
             style="line-height:74.00000095%;fill:#ffd42a;stroke:#d4aa00"
             id="path4408"
             inkscape:connector-curvature="0" />
        </g>
        <g
           style="font-size:230.06358337px;font-style:normal;font-variant:normal;font-weight:normal;font-stretch:normal;text-align:start;line-height:74.00000095%;letter-spacing:0px;word-spacing:0px;writing-mode:lr-tb;text-anchor:start;fill:#ffd42a;fill-opacity:1;stroke:#d4aa00;font-family:AngsanaUPC;-inkscape-font-specification:AngsanaUPC"
           id="text3817-1-8-1-8">
          <path
             d="m 421.27838,375.16214 c -1e-4,14.94069 -4.68075,27.54101 -14.04196,37.80098 -9.3614,10.26 -21.15664,15.38999 -35.38576,15.38999 -9.66092,0 -18.12354,-2.26543 -25.38788,-6.79631 -7.2644,-4.53086 -13.0216,-10.73741 -17.27162,-18.61965 -4.25004,-7.88219 -6.37505,-17.06563 -6.37505,-27.55033 0,-15.12782 4.87723,-27.60643 14.63173,-37.43589 9.75446,-9.82928 21.61523,-14.74396 35.58234,-14.74406 9.21147,1e-4 17.37452,2.28426 24.48919,6.85248 7.11451,4.56841 12.85299,10.75623 17.21546,18.56348 4.36226,7.8074 6.54345,16.65383 6.54355,26.53931 z m -16.96269,2.02205 c -9e-5,-32.39006 -10.89665,-48.58511 -32.6897,-48.58521 -5.99129,1e-4 -11.33659,1.58216 -16.03593,4.74619 -4.69941,3.16421 -8.50946,8.2474 -11.43016,15.24957 -2.92075,7.00233 -4.38112,15.8394 -4.38109,26.51124 -3e-5,14.60368 2.799,26.24914 8.39709,34.93641 5.59803,8.6873 13.43344,13.03095 23.50626,13.03094 10.63438,10e-6 18.73191,-4.09088 24.2926,-12.27267 5.56053,-8.18177 8.34084,-19.38724 8.34093,-33.61647 z"
             style="line-height:74.00000095%;fill:#ffd42a;stroke:#d4aa00"
             id="path4411"
             inkscape:connector-curvature="0" />
        </g>
        <g
           style="font-size:230.06358337px;font-style:normal;font-variant:normal;font-weight:normal;font-stretch:normal;text-align:start;line-height:74.00000095%;letter-spacing:0px;word-spacing:0px;writing-mode:lr-tb;text-anchor:start;fill:#ffd42a;fill-opacity:1;stroke:#d4aa00;font-family:AngsanaUPC;-inkscape-font-specification:AngsanaUPC"
           id="text3817-1-8-1-1-1">
          <path
             d="m 321.41191,575.3175 0,-2.75222 3.81941,0 c 4.2313,0 7.06778,-1.08591 8.50943,-3.25774 1.44163,-2.17181 2.16245,-6.10356 2.16247,-11.79525 l 0,-64.93005 c -2e-5,-6.70261 -0.94551,-10.88711 -2.83648,-12.55352 -1.891,-1.66622 -4.5028,-2.49937 -7.83542,-2.49947 l -3.81941,0 0,-2.75223 40.94637,0 c 11.42075,1e-4 21.2782,1.1141 29.57238,3.34199 8.29405,2.22809 15.49289,7.46106 21.59655,15.69892 6.10347,8.23803 9.15526,18.47929 9.15536,30.72382 -10e-5,9.47369 -2.06895,18.12353 -6.20655,25.94956 -4.13779,7.82607 -10.31625,13.92028 -18.53539,18.28264 -8.21931,4.36237 -18.75077,6.54355 -31.59443,6.54355 z m 28.70178,-92.73314 0,85.48749 c 6.29076,1.38548 11.55181,2.07822 15.78317,2.07821 13.25555,10e-6 23.21598,-4.49342 29.8813,-13.48029 6.66517,-8.98683 9.9978,-19.45276 9.99788,-31.39783 -8e-5,-13.48023 -3.66971,-24.32998 -11.0089,-32.54928 -7.33933,-8.21914 -17.14998,-12.32876 -29.43196,-12.32885 -4.45603,9e-5 -9.52985,0.73028 -15.22149,2.19055 z"
             style="line-height:74.00000095%;fill:#ffd42a;stroke:#d4aa00"
             id="path4414"
             inkscape:connector-curvature="0" />
        </g>
        <g
           transform="scale(0.96926368,1.031711)"
           style="font-size:222.99227905px;font-style:normal;font-variant:normal;font-weight:normal;font-stretch:normal;text-align:start;line-height:74.00000095%;letter-spacing:0px;word-spacing:0px;writing-mode:lr-tb;text-anchor:start;fill:#ffd42a;fill-opacity:1;stroke:#d4aa00;font-family:AngsanaUPC;-inkscape-font-specification:AngsanaUPC"
           id="text3817-1-8-1-1-7-2">
          <path
             d="m 425.60183,686.91192 -8.38398,24.44422 -75.12924,0 0,-2.66763 3.48426,0 c 3.41165,0 6.01577,-0.87106 7.81235,-2.61319 1.79655,-1.74212 2.69483,-5.6982 2.69485,-11.86824 l 0,-63.31544 c -2e-5,-6.60548 -0.87108,-10.64322 -2.61319,-12.11323 -1.74214,-1.46982 -4.37348,-2.20478 -7.89401,-2.20488 l -3.48426,0 0,-2.66763 75.12924,0 1.08883,21.34106 -2.83096,0 c -1.27038,-6.60548 -3.09417,-10.9245 -5.47137,-12.95707 -2.37735,-2.03239 -6.85062,-3.04863 -13.41982,-3.04872 l -26.73077,0 0,38.49012 21.3955,0 c 5.00856,5e-5 8.7378,-0.81657 11.18773,-2.44987 2.4498,-1.63318 3.83805,-5.53482 4.16477,-11.70492 l 2.61319,0 0,33.91704 -2.61319,0 c -0.61707,-6.56923 -2.25939,-10.62511 -4.92696,-12.16767 -2.66769,-1.54246 -6.14286,-2.31371 -10.42554,-2.31376 l -21.3955,0 0,32.12047 c -3e-5,4.60939 0.4718,7.57645 1.41548,8.90118 0.94362,1.32475 3.15757,1.98712 6.64186,1.98712 l 16.49577,0 c 6.82327,0 12.1676,-1.08883 16.03301,-3.26649 3.86527,-2.17765 7.9756,-7.45847 12.331,-15.84247 z"
             style="line-height:74.00000095%;fill:#ffd42a;stroke:#d4aa00"
             id="path4417"
             inkscape:connector-curvature="0" />
        </g>
        <g
           style="font-size:230.06358337px;font-style:normal;font-variant:normal;font-weight:normal;font-stretch:normal;text-align:start;line-height:74.00000095%;letter-spacing:0px;word-spacing:0px;writing-mode:lr-tb;text-anchor:start;fill:#ffd42a;fill-opacity:1;stroke:#d4aa00;font-family:AngsanaUPC;-inkscape-font-specification:AngsanaUPC"
           id="text3817-1-8-4-5">
          <path
             d="m 422.06474,884.51282 -26.84824,0 -34.03773,-47.01251 c -2.50887,0.11239 -4.54963,0.16855 -6.1223,0.16851 -0.82383,4e-5 -2.28419,-0.0561 -4.38109,-0.16851 l 0,29.20729 c -3e-5,6.66527 0.92674,10.84041 2.78031,12.52544 1.8535,1.68504 4.42786,2.52755 7.72308,2.52755 l 3.93175,0 0,2.75223 -43.08075,0 0,-2.75223 3.81941,0 c 4.15641,0 6.97417,-1.07655 8.45327,-3.22965 1.47907,-2.15309 2.21861,-6.0942 2.21863,-11.82334 l 0,-64.93005 c -2e-5,-6.66516 -0.93615,-10.84031 -2.8084,-12.52544 -1.87227,-1.68493 -4.49344,-2.52745 -7.8635,-2.52755 l -3.81941,0 0,-2.75222 36.62145,0 c 8.98681,10e-5 16.20437,0.5805 21.65271,1.7412 5.44822,1.1609 10.17567,3.96929 14.18239,8.42518 4.00656,4.45607 6.00988,9.6984 6.00996,15.727 -8e-5,13.48035 -8.25675,22.0553 -24.77003,25.72489 l 20.78211,28.81411 c 5.16736,7.15206 9.55781,11.72037 13.17136,13.70496 3.61338,1.9846 7.74171,3.20157 12.38502,3.65091 z m -71.38936,-93.5195 0,41.84506 4.15642,0 c 8.87448,5e-5 15.92354,-1.91902 21.1472,-5.75721 5.22355,-3.83807 7.83536,-9.25827 7.83542,-16.26059 -6e-5,-7.22686 -2.18125,-12.57216 -6.54356,-16.03593 -4.36242,-3.46359 -9.35199,-5.19543 -14.96873,-5.19553 -4.75559,10e-5 -8.63117,0.46816 -11.62675,1.4042 z"
             style="line-height:74.00000095%;fill:#ffd42a;stroke:#d4aa00"
             id="path4420"
             inkscape:connector-curvature="0" />
        </g>
      </g>
      <g
         transform="matrix(1.1336108,0,0,1.1336108,-63.005201,-119.08544)"
         id="text3817-1-4"
         style="font-size:34.73635864px;font-style:normal;font-variant:normal;font-weight:normal;font-stretch:normal;text-align:start;line-height:74.00000095%;letter-spacing:0px;word-spacing:0px;writing-mode:lr-tb;text-anchor:start;fill:#ececec;fill-opacity:1;stroke:#b3b3b3;stroke-width:0.66614515;stroke-opacity:1;font-family:AngsanaUPC;-inkscape-font-specification:AngsanaUPC">
        <path
           inkscape:connector-curvature="0"
           id="path4276"
           style="fill:#ececec;stroke:#b3b3b3"
           d="m 306.14059,967.02252 -4.05371,0 -5.13921,-7.09822 c -0.37881,0.017 -0.68694,0.0254 -0.92439,0.0254 -0.12438,10e-6 -0.34488,-0.008 -0.66148,-0.0254 l 0,4.40989 c 0,1.00636 0.13993,1.63674 0.41979,1.89116 0.27985,0.25442 0.66854,0.38163 1.16608,0.38162 l 0.59363,0 0,0.41555 -6.50458,0 0,-0.41555 0.57668,0 c 0.62756,10e-6 1.053,-0.16254 1.27632,-0.48763 0.22332,-0.32508 0.33498,-0.92014 0.33498,-1.78515 l 0,-9.80353 c 0,-1.00634 -0.14134,-1.63673 -0.42403,-1.89116 -0.28268,-0.2544 -0.67844,-0.38161 -1.18727,-0.38163 l -0.57668,0 0,-0.41554 5.52932,0 c 1.35688,1e-5 2.44663,0.0876 3.26925,0.26289 0.82261,0.17528 1.53639,0.59931 2.14135,1.27209 0.60493,0.6728 0.9074,1.46432 0.90741,2.37455 -10e-6,2.03535 -1.24665,3.33004 -3.73992,3.8841 l 3.13781,4.35052 c 0.78019,1.07986 1.44309,1.76961 1.98869,2.06926 0.54556,0.29965 1.16888,0.48339 1.86996,0.55123 z m -10.77879,-14.12012 0,6.31801 0.62756,0 c 1.33992,10e-6 2.40423,-0.28974 3.19293,-0.86926 0.78868,-0.57949 1.18303,-1.39787 1.18304,-2.45512 -10e-6,-1.09115 -0.32934,-1.89822 -0.98799,-2.4212 -0.65866,-0.52295 -1.41202,-0.78443 -2.26006,-0.78445 -0.71803,2e-5 -1.30319,0.0707 -1.75548,0.21202 z" />
        <path
           inkscape:connector-curvature="0"
           id="path4278"
           style="fill:#ececec;stroke:#b3b3b3"
           d="m 321.58368,959.33914 c -1e-5,2.25583 -0.70673,4.1583 -2.12014,5.70741 -1.41344,1.54912 -3.19435,2.32367 -5.34275,2.32367 -1.45866,0 -2.7364,-0.34204 -3.83321,-1.02614 -1.09682,-0.6841 -1.96608,-1.6212 -2.60777,-2.81131 -0.6417,-1.1901 -0.96254,-2.57667 -0.96254,-4.15971 0,-2.28409 0.73639,-4.16818 2.20918,-5.65229 1.47279,-1.48408 3.2636,-2.22613 5.37243,-2.22615 1.39081,2e-5 2.62331,0.34489 3.69753,1.03463 1.07419,0.68977 1.94062,1.62404 2.59929,2.80283 0.65864,1.1788 0.98797,2.51449 0.98798,4.00706 z m -2.56113,0.3053 c -1e-5,-4.89044 -1.64524,-7.33567 -4.93568,-7.33568 -0.9046,10e-6 -1.71167,0.23888 -2.4212,0.7166 -0.70954,0.47776 -1.28481,1.24524 -1.72579,2.30247 -0.44099,1.05726 -0.66149,2.39153 -0.66149,4.00283 0,2.20495 0.42261,3.96325 1.26785,5.2749 0.84522,1.31166 2.02826,1.96749 3.54911,1.96749 1.60564,0 2.82825,-0.61766 3.66784,-1.853 0.83956,-1.23533 1.25935,-2.9272 1.25936,-5.07561 z" />
        <path
           inkscape:connector-curvature="0"
           id="path4280"
           style="fill:#ececec;stroke:#b3b3b3"
           d="m 322.84729,967.02252 0,-0.41555 0.56819,0 c 0.47491,10e-6 0.86502,-0.12862 1.17032,-0.38586 0.3053,-0.25724 0.45795,-0.88622 0.45795,-1.88692 l 0,-9.80353 c 0,-1.00069 -0.14559,-1.62966 -0.43675,-1.88692 -0.29117,-0.25723 -0.68834,-0.38585 -1.19152,-0.38587 l -0.56819,0 0,-0.41554 6.55547,0 c 4.26288,1e-5 6.39432,1.35125 6.39433,4.0537 -1e-5,1.6622 -0.91308,2.79011 -2.73922,3.38374 2.2954,0.48058 3.4431,1.67633 3.44311,3.58728 -1e-5,0.9046 -0.29825,1.70601 -0.8947,2.40424 -0.59648,0.69823 -1.31591,1.16466 -2.1583,1.39929 -0.84241,0.23463 -1.98729,0.35194 -3.43462,0.35194 z m 4.34204,-14.17949 0,5.82614 c 0.55406,0.10743 1.26077,0.16114 2.12014,0.16113 2.76465,1e-5 4.14698,-1.00917 4.14699,-3.02755 -10e-6,-1.012 -0.3986,-1.8007 -1.19576,-2.36608 -0.79718,-0.56536 -1.81484,-0.84804 -3.053,-0.84805 -0.74629,10e-6 -1.41908,0.0848 -2.01837,0.25441 z m 0,6.86077 0,6.22473 c 0.86501,0.19788 1.71872,0.29682 2.56113,0.29682 1.23815,0 2.24027,-0.27844 3.00636,-0.83534 0.76606,-0.55688 1.1491,-1.33285 1.14911,-2.32791 -1e-5,-1.10247 -0.41838,-1.95476 -1.25512,-2.55689 -0.83676,-0.60211 -1.99577,-0.90317 -3.47703,-0.90317 -0.96114,0 -1.62262,0.0339 -1.98445,0.10176 z" />
        <path
           inkscape:connector-curvature="0"
           id="path4282"
           style="fill:#ececec;stroke:#b3b3b3"
           d="m 351.20626,963.21475 -1.306,3.80777 -11.70317,0 0,-0.41555 0.54276,0 c 0.53144,10e-6 0.9371,-0.13568 1.21696,-0.40706 0.27985,-0.27138 0.41978,-0.88763 0.41978,-1.84876 l 0,-9.86289 c 0,-1.02896 -0.13569,-1.65793 -0.40706,-1.88692 -0.27138,-0.22896 -0.68128,-0.34345 -1.22968,-0.34347 l -0.54276,0 0,-0.41554 11.70317,0 0.16961,3.32437 -0.44099,0 c -0.19789,-1.02896 -0.48199,-1.70175 -0.8523,-2.01837 -0.37032,-0.31659 -1.06714,-0.47489 -2.09045,-0.47491 l -4.16396,0 0,5.99575 3.33286,0 c 0.7802,10e-6 1.36112,-0.1272 1.74276,-0.38162 0.38161,-0.25441 0.59787,-0.86218 0.64876,-1.82332 l 0.40707,0 0,5.28339 -0.40707,0 c -0.0961,-1.02332 -0.35195,-1.65512 -0.76749,-1.89541 -0.41556,-0.24027 -0.9569,-0.36041 -1.62403,-0.36042 l -3.33286,0 0,5.00353 c 0,0.71802 0.0735,1.18021 0.2205,1.38657 0.14699,0.20636 0.49187,0.30954 1.03463,0.30954 l 2.5696,0 c 1.06289,0 1.8954,-0.16961 2.49753,-0.50884 0.60211,-0.33922 1.24239,-1.16183 1.92084,-2.46784 z" />
        <path
           inkscape:connector-curvature="0"
           id="path4284"
           style="fill:#ececec;stroke:#b3b3b3"
           d="m 367.2006,967.02252 -4.05371,0 -5.13922,-7.09822 c -0.3788,0.017 -0.68693,0.0254 -0.92438,0.0254 -0.12438,10e-6 -0.34488,-0.008 -0.66148,-0.0254 l 0,4.40989 c -10e-6,1.00636 0.13992,1.63674 0.41979,1.89116 0.27985,0.25442 0.66854,0.38163 1.16607,0.38162 l 0.59364,0 0,0.41555 -6.50459,0 0,-0.41555 0.57668,0 c 0.62756,10e-6 1.053,-0.16254 1.27633,-0.48763 0.22332,-0.32508 0.33498,-0.92014 0.33498,-1.78515 l 0,-9.80353 c 0,-1.00634 -0.14135,-1.63673 -0.42403,-1.89116 -0.28269,-0.2544 -0.67845,-0.38161 -1.18728,-0.38163 l -0.57668,0 0,-0.41554 5.52933,0 c 1.35688,1e-5 2.44663,0.0876 3.26925,0.26289 0.82261,0.17528 1.53639,0.59931 2.14134,1.27209 0.60494,0.6728 0.90741,1.46432 0.90742,2.37455 -10e-6,2.03535 -1.24665,3.33004 -3.73992,3.8841 l 3.1378,4.35052 c 0.7802,1.07986 1.4431,1.76961 1.98869,2.06926 0.54557,0.29965 1.16889,0.48339 1.86997,0.55123 z m -10.77879,-14.12012 0,6.31801 0.62756,0 c 1.33992,10e-6 2.40423,-0.28974 3.19293,-0.86926 0.78868,-0.57949 1.18303,-1.39787 1.18304,-2.45512 -1e-5,-1.09115 -0.32934,-1.89822 -0.98799,-2.4212 -0.65866,-0.52295 -1.41202,-0.78443 -2.26007,-0.78445 -0.71802,2e-5 -1.30318,0.0707 -1.75547,0.21202 z" />
        <path
           inkscape:connector-curvature="0"
           id="path4286"
           style="fill:#ececec;stroke:#b3b3b3"
           d="m 380.40482,955.40416 -0.42403,0 c -0.15831,-1.74133 -1.08269,-2.612 -2.77314,-2.61201 l -2.14558,0 0,11.6014 c -1e-5,0.99505 0.13709,1.61272 0.41131,1.853 0.27419,0.24028 0.67419,0.36043 1.2,0.36042 l 0.53427,0 0,0.41555 -6.44522,0 0,-0.41555 0.54275,0 c 0.4636,10e-6 0.84805,-0.11872 1.15336,-0.35618 0.30529,-0.23745 0.45794,-0.85653 0.45795,-1.85724 l 0,-11.6014 -1.82332,0 c -0.95548,10e-6 -1.67491,0.17669 -2.1583,0.53003 -0.4834,0.35337 -0.76467,1.04736 -0.84382,2.08198 l -0.42403,0 0.1781,-3.56183 12.39009,0 z" />
        <path
           inkscape:connector-curvature="0"
           id="path4288"
           style="fill:#ececec;stroke:#b3b3b3"
           d="m 402.94614,959.16105 -0.27986,0 c -0.56538,0 -0.94418,0.16113 -1.13639,0.48339 -0.19224,0.32227 -0.28836,0.90177 -0.28834,1.73851 l 0,4.64735 c -1.65655,0.89328 -3.43181,1.33992 -5.32579,1.33992 -2.64594,0 -4.70671,-0.75618 -6.18233,-2.26854 -1.47561,-1.51237 -2.21342,-3.32296 -2.21342,-5.4318 0,-1.46995 0.39576,-2.88338 1.18728,-4.24028 0.79151,-1.35687 1.75829,-2.35193 2.90035,-2.98515 1.14204,-0.6332 2.45935,-0.94981 3.95194,-0.94983 0.98373,2e-5 2.12578,0.24313 3.42614,0.72933 0.42402,0.15832 0.70387,0.23747 0.83958,0.23746 0.3279,10e-6 0.50882,-0.32225 0.54275,-0.96679 l 0.41555,0 0.3901,4.79152 -0.3901,0 c -0.84807,-2.66854 -2.51874,-4.00281 -5.01201,-4.00282 -1.88269,10e-6 -3.29894,0.68411 -4.24876,2.05229 -0.94983,1.36821 -1.42474,2.98517 -1.42473,4.85088 -10e-6,2.14841 0.55547,3.92226 1.66643,5.32155 1.11094,1.39929 2.49751,2.09894 4.15971,2.09893 1.10812,10e-6 2.15405,-0.27985 3.13781,-0.83957 l 0,-4.38445 c -2e-5,-0.88197 -0.13288,-1.47278 -0.39859,-1.77243 -0.26574,-0.29964 -0.79718,-0.44947 -1.59435,-0.44947 l 0,-0.42403 5.87703,0 z" />
        <path
           inkscape:connector-curvature="0"
           id="path4290"
           style="fill:#ececec;stroke:#b3b3b3"
           d="m 418.76238,967.02252 -4.05371,0 -5.13921,-7.09822 c -0.37881,0.017 -0.68694,0.0254 -0.92439,0.0254 -0.12438,10e-6 -0.34488,-0.008 -0.66148,-0.0254 l 0,4.40989 c 0,1.00636 0.13993,1.63674 0.41979,1.89116 0.27985,0.25442 0.66854,0.38163 1.16608,0.38162 l 0.59363,0 0,0.41555 -6.50458,0 0,-0.41555 0.57668,0 c 0.62756,10e-6 1.053,-0.16254 1.27632,-0.48763 0.22332,-0.32508 0.33498,-0.92014 0.33498,-1.78515 l 0,-9.80353 c 0,-1.00634 -0.14134,-1.63673 -0.42403,-1.89116 -0.28268,-0.2544 -0.67844,-0.38161 -1.18727,-0.38163 l -0.57668,0 0,-0.41554 5.52932,0 c 1.35688,1e-5 2.44663,0.0876 3.26925,0.26289 0.82261,0.17528 1.53639,0.59931 2.14135,1.27209 0.60493,0.6728 0.9074,1.46432 0.90741,2.37455 -10e-6,2.03535 -1.24665,3.33004 -3.73992,3.8841 l 3.13781,4.35052 c 0.78019,1.07986 1.44309,1.76961 1.98869,2.06926 0.54556,0.29965 1.16888,0.48339 1.86996,0.55123 z m -10.77879,-14.12012 0,6.31801 0.62756,0 c 1.33992,10e-6 2.40423,-0.28974 3.19293,-0.86926 0.78868,-0.57949 1.18303,-1.39787 1.18304,-2.45512 -1e-5,-1.09115 -0.32934,-1.89822 -0.98799,-2.4212 -0.65866,-0.52295 -1.41202,-0.78443 -2.26006,-0.78445 -0.71803,2e-5 -1.30319,0.0707 -1.75548,0.21202 z" />
        <path
           inkscape:connector-curvature="0"
           id="path4292"
           style="fill:#ececec;stroke:#b3b3b3"
           d="m 432.00901,963.21475 -1.30601,3.80777 -11.70317,0 0,-0.41555 0.54276,0 c 0.53144,10e-6 0.9371,-0.13568 1.21696,-0.40706 0.27985,-0.27138 0.41978,-0.88763 0.41979,-1.84876 l 0,-9.86289 c -1e-5,-1.02896 -0.1357,-1.65793 -0.40707,-1.88692 -0.27138,-0.22896 -0.68127,-0.34345 -1.22968,-0.34347 l -0.54276,0 0,-0.41554 11.70317,0 0.16961,3.32437 -0.44099,0 c -0.19789,-1.02896 -0.48199,-1.70175 -0.85229,-2.01837 -0.37033,-0.31659 -1.06715,-0.47489 -2.09046,-0.47491 l -4.16395,0 0,5.99575 3.33285,0 c 0.78021,10e-6 1.36112,-0.1272 1.74276,-0.38162 0.38161,-0.25441 0.59787,-0.86218 0.64876,-1.82332 l 0.40707,0 0,5.28339 -0.40707,0 c -0.0961,-1.02332 -0.35195,-1.65512 -0.76749,-1.89541 -0.41556,-0.24027 -0.9569,-0.36041 -1.62403,-0.36042 l -3.33285,0 0,5.00353 c -1e-5,0.71802 0.0735,1.18021 0.22049,1.38657 0.14699,0.20636 0.49187,0.30954 1.03463,0.30954 l 2.56961,0 c 1.06288,0 1.89539,-0.16961 2.49752,-0.50884 0.60211,-0.33922 1.24239,-1.16183 1.92085,-2.46784 z" />
        <path
           inkscape:connector-curvature="0"
           id="path4294"
           style="fill:#ececec;stroke:#b3b3b3"
           d="m 445.98496,963.21475 -1.30601,3.80777 -11.70317,0 0,-0.41555 0.54276,0 c 0.53145,10e-6 0.9371,-0.13568 1.21696,-0.40706 0.27986,-0.27138 0.41978,-0.88763 0.41979,-1.84876 l 0,-9.86289 c -10e-6,-1.02896 -0.13569,-1.65793 -0.40707,-1.88692 -0.27138,-0.22896 -0.68127,-0.34345 -1.22968,-0.34347 l -0.54276,0 0,-0.41554 11.70317,0 0.16961,3.32437 -0.44099,0 c -0.19789,-1.02896 -0.48199,-1.70175 -0.85229,-2.01837 -0.37033,-0.31659 -1.06715,-0.47489 -2.09046,-0.47491 l -4.16395,0 0,5.99575 3.33286,0 c 0.7802,10e-6 1.36112,-0.1272 1.74275,-0.38162 0.38162,-0.25441 0.59787,-0.86218 0.64876,-1.82332 l 0.40707,0 0,5.28339 -0.40707,0 c -0.0961,-1.02332 -0.35195,-1.65512 -0.76749,-1.89541 -0.41555,-0.24027 -0.9569,-0.36041 -1.62402,-0.36042 l -3.33286,0 0,5.00353 c -10e-6,0.71802 0.0735,1.18021 0.22049,1.38657 0.14699,0.20636 0.49187,0.30954 1.03463,0.30954 l 2.56961,0 c 1.06289,0 1.89539,-0.16961 2.49752,-0.50884 0.60211,-0.33922 1.24239,-1.16183 1.92085,-2.46784 z" />
        <path
           inkscape:connector-curvature="0"
           id="path4296"
           style="fill:#ececec;stroke:#b3b3b3"
           d="m 462.71711,952.25787 -0.53428,0 c -0.65019,2e-5 -1.08128,0.15832 -1.29328,0.47491 -0.21203,0.31663 -0.31804,0.89613 -0.31802,1.73852 l 0,12.79716 -0.40707,0 -10.00706,-12.22048 0,9.34557 c 0,0.99505 0.1371,1.61272 0.41131,1.853 0.2742,0.24028 0.6742,0.36043 1.2,0.36042 l 0.53427,0 0,0.41555 -5.28338,0 0,-0.41555 0.52579,0 c 0.46926,10e-6 0.85795,-0.11872 1.16608,-0.35618 0.30812,-0.23745 0.46218,-0.85653 0.46219,-1.85724 l 0,-10.55829 c -0.50884,-0.59363 -0.98799,-1.00493 -1.43746,-1.23392 -0.44947,-0.22896 -0.96819,-0.34345 -1.55618,-0.34347 l 0,-0.41554 4.12155,0 9.27773,11.38938 0,-8.76041 c -10e-6,-0.98939 -0.13994,-1.60564 -0.41979,-1.84876 -0.27987,-0.2431 -0.67987,-0.36465 -1.2,-0.36467 l -0.52579,0 0,-0.41554 5.28339,0 z" />
        <path
           inkscape:connector-curvature="0"
           id="path4298"
           style="fill:#ececec;stroke:#b3b3b3"
           d="m 476.51497,963.21475 -1.306,3.80777 -11.70317,0 0,-0.41555 0.54275,0 c 0.53145,10e-6 0.9371,-0.13568 1.21696,-0.40706 0.27986,-0.27138 0.41979,-0.88763 0.41979,-1.84876 l 0,-9.86289 c 0,-1.02896 -0.13569,-1.65793 -0.40707,-1.88692 -0.27138,-0.22896 -0.68127,-0.34345 -1.22968,-0.34347 l -0.54275,0 0,-0.41554 11.70317,0 0.16961,3.32437 -0.44099,0 c -0.19789,-1.02896 -0.48199,-1.70175 -0.8523,-2.01837 -0.37033,-0.31659 -1.06714,-0.47489 -2.09045,-0.47491 l -4.16396,0 0,5.99575 3.33286,0 c 0.7802,10e-6 1.36112,-0.1272 1.74275,-0.38162 0.38162,-0.25441 0.59787,-0.86218 0.64877,-1.82332 l 0.40706,0 0,5.28339 -0.40706,0 c -0.0961,-1.02332 -0.35196,-1.65512 -0.76749,-1.89541 -0.41556,-0.24027 -0.9569,-0.36041 -1.62403,-0.36042 l -3.33286,0 0,5.00353 c 0,0.71802 0.0735,1.18021 0.2205,1.38657 0.14699,0.20636 0.49186,0.30954 1.03462,0.30954 l 2.56961,0 c 1.06289,0 1.8954,-0.16961 2.49753,-0.50884 0.6021,-0.33922 1.24239,-1.16183 1.92084,-2.46784 z" />
      </g>
    </g>
  </g>
</svg>
